<svg xmlns="http://www.w3.org/2000/svg" width="512" height="512" class="bg-light">
<defs>
  <style>
    path {fill: {{ .Site.Params.mainColour }}}
    text {fill: #fff;letter-spacing:4px;font-size:180px;font-family:'Fira Sans';font-weight:900;}
    tspan {font-size:180px;fill:{{ .Site.Params.mainColour }};}
  </style>
</defs>
  <path d="M272 103.652c20.928-22.048 57.024-28.352 99.584-24.064C411.072 83.556 451.68 96.324 480 108.164V425.7c-29.376-11.2-67.424-22.144-105.184-25.92-35.008-3.552-72.896-1.248-102.816 15.744zm-16-28.928c-31.52-27.104-77.216-31.136-118.816-26.976C88.736 52.644 39.84 69.252 9.376 83.108A16 16 0 0 0 0 97.668v352a16 16 0 0 0 22.624 14.56c28.224-12.8 73.696-28.192 117.76-32.64 45.088-4.544 82.88 2.784 103.136 28.064a16 16 0 0 0 24.96 0c20.256-25.28 58.048-32.608 103.104-28.064 44.096 4.448 89.6 19.84 117.792 32.64A16 16 0 0 0 512 449.668v-352a16 16 0 0 0-9.376-14.56c-30.464-13.856-79.36-30.464-127.808-35.36-41.6-4.192-87.296-.128-118.816 26.976z" />
  <text x="21.997" y="306.16">
    RF
  <tspan x="343.997" y="306.16">
   i
  </tspan>
</text>
</svg>
