<svg xmlns="http://www.w3.org/2000/svg" width="327" height="512" viewBox="0 0 86.519 135.467">
  <path d="M32.298 62.232q4.448-5.928 10.377-9.125 6.007-3.277 13.028-3.277 11 0 17.788 5.303 6.787 5.305 9.907 14.977 3.12 9.593 3.12 22.461 0 12.401-3.745 22.15-3.666 9.671-10.922 15.208-7.255 5.538-17.865 5.538-14.277 0-22.39-10.295l-.937 8.501H19.192V49.52L4.915 56.382 0 47.96l19.192-9.125V18.478l13.107-1.638v15.755l17.631-8.423 4.681 8.345-22.312 10.685zm18.568 62.627q10.298 0 15.837-7.955 5.54-7.955 5.54-24.412 0-32.132-19.348-32.132-6.866 0-12.093 4.133-5.227 4.056-8.503 9.047v40.712q3.198 4.914 8.035 7.8 4.915 2.807 10.532 2.807z"/>
  <path d="M61.422 0 86.52 16.686l-5.62 6.597-19.477-12.418L42.1 23.283l-5.851-6.597z"/>
</svg>
