<svg xmlns="http://www.w3.org/2000/svg" width="50" height="50">
  <path d="M26.872 15.838c-5.576 1.496-9.114 4.608-10.613 9.276 1.38-2.155 3.358-3.232 5.936-3.232 1.979 0 3.598.658 4.977 1.975 1.319 1.316 2.039 2.992 2.039 4.967 0 1.915-.66 3.471-1.979 4.787-1.32 1.317-3.058 1.915-5.217 1.915-2.218 0-3.897-.718-5.157-2.094C15.6 31.995 15 30.08 15 27.627 15 21.224 18.898 16.974 26.752 15zm15.79 0c-5.576 1.496-9.114 4.608-10.613 9.276 1.379-2.155 3.357-3.232 5.936-3.232 1.978 0 3.597.658 4.977 1.975C44.28 25.173 45 26.85 45 28.824c0 1.915-.66 3.471-1.978 4.787-1.32 1.317-3.059 1.915-5.217 1.915-2.219 0-3.898-.718-5.157-2.094-1.259-1.437-1.859-3.351-1.859-5.805 0-6.403 3.898-10.653 11.753-12.627z" style="stroke-width:.789474"/>
</svg>
